<svg width="346" height="180" viewBox="0 0 346 180" fill="none" xmlns="http://www.w3.org/2000/svg">
<g filter="url(#filter0_d_1_532)">
<rect x="4" width="337.243" height="172" rx="14" fill="white"/>
</g>
<path d="M199.256 94.8C199.363 94.8 199.416 94.8533 199.416 94.96V95.648C199.416 95.7547 199.363 95.808 199.256 95.808H196.12C196.077 95.808 196.056 95.8293 196.056 95.872V105.84C196.056 105.947 196.003 106 195.896 106H195.08C194.973 106 194.92 105.947 194.92 105.84V95.872C194.92 95.8293 194.899 95.808 194.856 95.808H191.848C191.741 95.808 191.688 95.7547 191.688 95.648V94.96C191.688 94.8533 191.741 94.8 191.848 94.8H199.256ZM203.352 106.128C202.584 106.128 201.923 105.931 201.368 105.536C200.814 105.141 200.43 104.597 200.216 103.904C200.067 103.413 199.992 102.757 199.992 101.936C199.992 101.115 200.067 100.464 200.216 99.984C200.419 99.3013 200.798 98.7627 201.352 98.368C201.907 97.9733 202.579 97.776 203.368 97.776C204.126 97.776 204.776 97.9733 205.32 98.368C205.875 98.7627 206.254 99.296 206.456 99.968C206.606 100.427 206.68 101.083 206.68 101.936C206.68 102.8 206.606 103.456 206.456 103.904C206.254 104.597 205.875 105.141 205.32 105.536C204.776 105.931 204.12 106.128 203.352 106.128ZM203.352 105.136C203.864 105.136 204.302 104.997 204.664 104.72C205.027 104.432 205.272 104.048 205.4 103.568C205.496 103.184 205.544 102.645 205.544 101.952C205.544 101.248 205.502 100.709 205.416 100.336C205.288 99.856 205.038 99.4773 204.664 99.2C204.302 98.912 203.859 98.768 203.336 98.768C202.814 98.768 202.371 98.912 202.008 99.2C201.646 99.4773 201.4 99.856 201.272 100.336C201.187 100.709 201.144 101.248 201.144 101.952C201.144 102.656 201.187 103.195 201.272 103.568C201.39 104.048 201.63 104.432 201.992 104.72C202.366 104.997 202.819 105.136 203.352 105.136ZM212.521 98.688C212.521 98.7947 212.468 98.848 212.361 98.848H210.553C210.511 98.848 210.489 98.8693 210.489 98.912V103.632C210.489 104.144 210.601 104.507 210.825 104.72C211.06 104.923 211.423 105.024 211.913 105.024H212.313C212.42 105.024 212.473 105.077 212.473 105.184V105.84C212.473 105.947 212.42 106 212.313 106C212.185 106.011 211.988 106.016 211.721 106.016C210.953 106.016 210.372 105.872 209.977 105.584C209.583 105.296 209.385 104.763 209.385 103.984V98.912C209.385 98.8693 209.364 98.848 209.321 98.848H208.345C208.239 98.848 208.185 98.7947 208.185 98.688V98.064C208.185 97.9573 208.239 97.904 208.345 97.904H209.321C209.364 97.904 209.385 97.8827 209.385 97.84V95.984C209.385 95.8773 209.439 95.824 209.545 95.824H210.329C210.436 95.824 210.489 95.8773 210.489 95.984V97.84C210.489 97.8827 210.511 97.904 210.553 97.904H212.361C212.468 97.904 212.521 97.9573 212.521 98.064V98.688ZM217.518 97.776C218.478 97.776 219.219 98.0213 219.742 98.512C220.264 99.0027 220.526 99.6533 220.526 100.464V105.84C220.526 105.947 220.472 106 220.366 106H219.55C219.443 106 219.39 105.947 219.39 105.84V105.184C219.39 105.163 219.379 105.147 219.358 105.136C219.347 105.125 219.331 105.131 219.31 105.152C219.043 105.472 218.696 105.717 218.27 105.888C217.843 106.048 217.368 106.128 216.846 106.128C216.088 106.128 215.454 105.936 214.942 105.552C214.43 105.168 214.174 104.581 214.174 103.792C214.174 102.992 214.462 102.363 215.038 101.904C215.624 101.435 216.435 101.2 217.47 101.2H219.326C219.368 101.2 219.39 101.179 219.39 101.136V100.528C219.39 99.984 219.235 99.5573 218.926 99.248C218.627 98.928 218.158 98.768 217.518 98.768C217.006 98.768 216.59 98.8693 216.27 99.072C215.95 99.264 215.752 99.536 215.678 99.888C215.646 99.9947 215.582 100.043 215.486 100.032L214.622 99.92C214.504 99.8987 214.456 99.856 214.478 99.792C214.563 99.1947 214.883 98.7093 215.438 98.336C215.992 97.9627 216.686 97.776 217.518 97.776ZM217.07 105.152C217.699 105.152 218.243 104.997 218.702 104.688C219.16 104.368 219.39 103.941 219.39 103.408V102.16C219.39 102.117 219.368 102.096 219.326 102.096H217.646C216.942 102.096 216.376 102.24 215.95 102.528C215.523 102.816 215.31 103.216 215.31 103.728C215.31 104.197 215.47 104.555 215.789 104.8C216.12 105.035 216.547 105.152 217.07 105.152ZM223.049 106C222.943 106 222.889 105.947 222.889 105.84V94.96C222.889 94.8533 222.943 94.8 223.049 94.8H223.865C223.972 94.8 224.025 94.8533 224.025 94.96V105.84C224.025 105.947 223.972 106 223.865 106H223.049ZM230.164 106C230.057 106 230.004 105.947 230.004 105.84V94.96C230.004 94.8533 230.057 94.8 230.164 94.8H233.94C234.996 94.8 235.833 95.0773 236.452 95.632C237.081 96.1867 237.396 96.9387 237.396 97.888V102.912C237.396 103.861 237.081 104.613 236.452 105.168C235.833 105.723 234.996 106 233.94 106H230.164ZM231.14 104.944C231.14 104.987 231.161 105.008 231.204 105.008H233.988C234.681 105.008 235.231 104.805 235.636 104.4C236.052 103.995 236.26 103.451 236.26 102.768V98.048C236.26 97.3547 236.057 96.8053 235.652 96.4C235.247 95.9947 234.692 95.792 233.988 95.792H231.204C231.161 95.792 231.14 95.8133 231.14 95.856V104.944ZM245.879 100.592C245.921 100.891 245.943 101.264 245.943 101.712V102.224C245.943 102.331 245.889 102.384 245.783 102.384H240.615C240.572 102.384 240.551 102.405 240.551 102.448C240.572 103.035 240.604 103.413 240.647 103.584C240.764 104.064 241.015 104.443 241.399 104.72C241.783 104.997 242.273 105.136 242.871 105.136C243.319 105.136 243.713 105.035 244.055 104.832C244.396 104.629 244.663 104.341 244.855 103.968C244.919 103.872 244.993 103.851 245.079 103.904L245.703 104.272C245.788 104.325 245.809 104.4 245.767 104.496C245.5 105.008 245.1 105.413 244.567 105.712C244.033 106 243.42 106.144 242.727 106.144C241.969 106.133 241.335 105.952 240.823 105.6C240.311 105.248 239.943 104.757 239.719 104.128C239.527 103.616 239.431 102.88 239.431 101.92C239.431 101.472 239.436 101.109 239.447 100.832C239.468 100.544 239.511 100.288 239.575 100.064C239.756 99.3707 240.119 98.816 240.663 98.4C241.217 97.984 241.884 97.776 242.663 97.776C243.633 97.776 244.38 98.0213 244.903 98.512C245.425 99.0027 245.751 99.696 245.879 100.592ZM242.663 98.768C242.14 98.768 241.703 98.9067 241.351 99.184C241.009 99.4507 240.785 99.8133 240.679 100.272C240.615 100.496 240.572 100.859 240.551 101.36C240.551 101.403 240.572 101.424 240.615 101.424H244.759C244.801 101.424 244.823 101.403 244.823 101.36C244.801 100.88 244.769 100.539 244.727 100.336C244.609 99.856 244.369 99.4773 244.007 99.2C243.655 98.912 243.207 98.768 242.663 98.768ZM248.362 106C248.255 106 248.202 105.947 248.202 105.84V94.96C248.202 94.8533 248.255 94.8 248.362 94.8H249.178C249.285 94.8 249.338 94.8533 249.338 94.96V105.84C249.338 105.947 249.285 106 249.178 106H248.362ZM252.657 96.432C252.401 96.432 252.188 96.3467 252.017 96.176C251.847 96.0053 251.761 95.792 251.761 95.536C251.761 95.2693 251.847 95.056 252.017 94.896C252.188 94.7253 252.401 94.64 252.657 94.64C252.913 94.64 253.127 94.7253 253.297 94.896C253.468 95.056 253.553 95.2693 253.553 95.536C253.553 95.792 253.468 96.0053 253.297 96.176C253.127 96.3467 252.913 96.432 252.657 96.432ZM252.209 105.984C252.103 105.984 252.049 105.931 252.049 105.824V98.048C252.049 97.9413 252.103 97.888 252.209 97.888H253.025C253.132 97.888 253.185 97.9413 253.185 98.048V105.824C253.185 105.931 253.132 105.984 253.025 105.984H252.209ZM258.032 106C257.936 106 257.872 105.957 257.84 105.872L255.215 98.08L255.2 98.016C255.2 97.9413 255.248 97.904 255.344 97.904H256.256C256.352 97.904 256.416 97.9467 256.448 98.032L258.448 104.304C258.458 104.325 258.474 104.336 258.496 104.336C258.517 104.336 258.533 104.325 258.544 104.304L260.544 98.032C260.576 97.9467 260.64 97.904 260.736 97.904L261.648 97.92C261.765 97.92 261.808 97.9787 261.776 98.096L259.152 105.872C259.12 105.957 259.056 106 258.96 106H258.032ZM269.504 100.592C269.546 100.891 269.568 101.264 269.568 101.712V102.224C269.568 102.331 269.514 102.384 269.408 102.384H264.24C264.197 102.384 264.176 102.405 264.176 102.448C264.197 103.035 264.229 103.413 264.272 103.584C264.389 104.064 264.64 104.443 265.024 104.72C265.408 104.997 265.898 105.136 266.496 105.136C266.944 105.136 267.338 105.035 267.68 104.832C268.021 104.629 268.288 104.341 268.48 103.968C268.544 103.872 268.618 103.851 268.704 103.904L269.328 104.272C269.413 104.325 269.434 104.4 269.392 104.496C269.125 105.008 268.725 105.413 268.192 105.712C267.658 106 267.045 106.144 266.352 106.144C265.594 106.133 264.96 105.952 264.448 105.6C263.936 105.248 263.568 104.757 263.344 104.128C263.152 103.616 263.056 102.88 263.056 101.92C263.056 101.472 263.061 101.109 263.072 100.832C263.093 100.544 263.136 100.288 263.2 100.064C263.381 99.3707 263.744 98.816 264.288 98.4C264.842 97.984 265.509 97.776 266.288 97.776C267.258 97.776 268.005 98.0213 268.528 98.512C269.05 99.0027 269.376 99.696 269.504 100.592ZM266.288 98.768C265.765 98.768 265.328 98.9067 264.976 99.184C264.634 99.4507 264.41 99.8133 264.304 100.272C264.24 100.496 264.197 100.859 264.176 101.36C264.176 101.403 264.197 101.424 264.24 101.424H268.384C268.426 101.424 268.448 101.403 268.448 101.36C268.426 100.88 268.394 100.539 268.352 100.336C268.234 99.856 267.994 99.4773 267.632 99.2C267.28 98.912 266.832 98.768 266.288 98.768ZM275.091 97.824C275.443 97.824 275.747 97.8933 276.003 98.032C276.088 98.0747 276.12 98.144 276.099 98.24L275.923 99.024C275.891 99.1307 275.822 99.1627 275.715 99.12C275.534 99.0453 275.326 99.008 275.091 99.008L274.883 99.024C274.328 99.0453 273.87 99.2533 273.507 99.648C273.144 100.032 272.963 100.523 272.963 101.12V105.84C272.963 105.947 272.91 106 272.803 106H271.987C271.88 106 271.827 105.947 271.827 105.84V98.064C271.827 97.9573 271.88 97.904 271.987 97.904H272.803C272.91 97.904 272.963 97.9573 272.963 98.064V99.04C272.963 99.072 272.968 99.0933 272.979 99.104C273 99.104 273.016 99.0933 273.027 99.072C273.251 98.6773 273.534 98.3733 273.875 98.16C274.227 97.936 274.632 97.824 275.091 97.824ZM283.785 100.592C283.828 100.891 283.849 101.264 283.849 101.712V102.224C283.849 102.331 283.796 102.384 283.689 102.384H278.521C278.478 102.384 278.457 102.405 278.457 102.448C278.478 103.035 278.51 103.413 278.553 103.584C278.67 104.064 278.921 104.443 279.305 104.72C279.689 104.997 280.18 105.136 280.777 105.136C281.225 105.136 281.62 105.035 281.961 104.832C282.302 104.629 282.569 104.341 282.761 103.968C282.825 103.872 282.9 103.851 282.985 103.904L283.609 104.272C283.694 104.325 283.716 104.4 283.673 104.496C283.406 105.008 283.006 105.413 282.473 105.712C281.94 106 281.326 106.144 280.633 106.144C279.876 106.133 279.241 105.952 278.729 105.6C278.217 105.248 277.849 104.757 277.625 104.128C277.433 103.616 277.337 102.88 277.337 101.92C277.337 101.472 277.342 101.109 277.353 100.832C277.374 100.544 277.417 100.288 277.481 100.064C277.662 99.3707 278.025 98.816 278.569 98.4C279.124 97.984 279.79 97.776 280.569 97.776C281.54 97.776 282.286 98.0213 282.809 98.512C283.332 99.0027 283.657 99.696 283.785 100.592ZM280.569 98.768C280.046 98.768 279.609 98.9067 279.257 99.184C278.916 99.4507 278.692 99.8133 278.585 100.272C278.521 100.496 278.478 100.859 278.457 101.36C278.457 101.403 278.478 101.424 278.521 101.424H282.665C282.708 101.424 282.729 101.403 282.729 101.36C282.708 100.88 282.676 100.539 282.633 100.336C282.516 99.856 282.276 99.4773 281.913 99.2C281.561 98.912 281.113 98.768 280.569 98.768ZM291.132 94.96C291.132 94.8533 291.185 94.8 291.292 94.8H292.108C292.215 94.8 292.268 94.8533 292.268 94.96V105.84C292.268 105.947 292.215 106 292.108 106H291.292C291.185 106 291.132 105.947 291.132 105.84V105.168C291.132 105.147 291.121 105.136 291.1 105.136C291.089 105.125 291.073 105.131 291.052 105.152C290.817 105.461 290.524 105.701 290.172 105.872C289.831 106.043 289.447 106.128 289.02 106.128C288.273 106.128 287.644 105.936 287.132 105.552C286.631 105.168 286.284 104.645 286.092 103.984C285.943 103.504 285.868 102.827 285.868 101.952C285.868 101.067 285.932 100.405 286.06 99.968C286.252 99.2853 286.604 98.752 287.116 98.368C287.628 97.9733 288.263 97.776 289.02 97.776C289.436 97.776 289.82 97.8613 290.172 98.032C290.524 98.192 290.817 98.4267 291.052 98.736C291.073 98.7573 291.089 98.768 291.1 98.768C291.121 98.7573 291.132 98.7413 291.132 98.72V94.96ZM290.844 103.904C290.94 103.691 291.009 103.44 291.052 103.152C291.095 102.864 291.116 102.464 291.116 101.952C291.116 101.44 291.095 101.04 291.052 100.752C291.009 100.453 290.935 100.192 290.828 99.968C290.7 99.6053 290.487 99.3173 290.188 99.104C289.9 98.88 289.553 98.768 289.148 98.768C288.721 98.768 288.353 98.8747 288.044 99.088C287.735 99.3013 287.511 99.584 287.372 99.936C287.244 100.171 287.148 100.437 287.084 100.736C287.031 101.024 287.004 101.429 287.004 101.952C287.004 102.453 287.025 102.848 287.068 103.136C287.111 103.413 287.185 103.664 287.292 103.888C287.42 104.272 287.644 104.576 287.964 104.8C288.295 105.024 288.684 105.136 289.132 105.136C289.559 105.136 289.916 105.024 290.204 104.8C290.492 104.576 290.705 104.277 290.844 103.904Z" fill="#464255"/>
<path d="M212.942 62.636C213.555 64.0467 213.862 65.672 213.862 67.512C213.862 69.168 213.586 70.7013 213.034 72.112C212.298 74.0747 211.056 75.608 209.308 76.712C207.591 77.816 205.551 78.368 203.19 78.368C200.859 78.368 198.805 77.7853 197.026 76.62C195.278 75.4547 194.021 73.8753 193.254 71.882C192.825 70.686 192.579 69.398 192.518 68.018C192.518 67.65 192.702 67.466 193.07 67.466H198.498C198.866 67.466 199.05 67.65 199.05 68.018C199.173 69.03 199.341 69.7813 199.556 70.272C199.832 71.0693 200.277 71.698 200.89 72.158C201.534 72.5873 202.285 72.802 203.144 72.802C204.861 72.802 206.042 72.0507 206.686 70.548C207.115 69.628 207.33 68.5547 207.33 67.328C207.33 65.8867 207.1 64.706 206.64 63.786C205.935 62.3447 204.754 61.624 203.098 61.624C202.761 61.624 202.408 61.7313 202.04 61.946C201.672 62.13 201.227 62.406 200.706 62.774C200.583 62.866 200.461 62.912 200.338 62.912C200.154 62.912 200.016 62.82 199.924 62.636L197.21 58.818C197.149 58.726 197.118 58.6187 197.118 58.496C197.118 58.312 197.179 58.1587 197.302 58.036L204.616 51.642C204.677 51.5807 204.693 51.5193 204.662 51.458C204.662 51.3967 204.616 51.366 204.524 51.366H193.714C193.561 51.366 193.423 51.32 193.3 51.228C193.208 51.1053 193.162 50.9673 193.162 50.814V46.352C193.162 46.1987 193.208 46.076 193.3 45.984C193.423 45.8613 193.561 45.8 193.714 45.8H212.896C213.049 45.8 213.172 45.8613 213.264 45.984C213.387 46.076 213.448 46.1987 213.448 46.352V51.412C213.448 51.6573 213.341 51.8873 213.126 52.102L207.1 57.622C207.039 57.6833 207.008 57.7447 207.008 57.806C207.039 57.8673 207.115 57.898 207.238 57.898C209.906 58.4193 211.807 59.9987 212.942 62.636ZM238.428 63.326C238.888 64.8287 239.118 66.2853 239.118 67.696C239.118 69.26 238.872 70.6707 238.382 71.928C237.676 73.8907 236.434 75.4547 234.656 76.62C232.877 77.7547 230.792 78.322 228.4 78.322C226.069 78.322 224.014 77.77 222.236 76.666C220.488 75.5313 219.246 73.998 218.51 72.066C218.203 71.2687 217.973 70.4253 217.82 69.536V69.444C217.82 69.1067 218.004 68.938 218.372 68.938H223.938C224.244 68.938 224.444 69.1067 224.536 69.444C224.566 69.628 224.612 69.7813 224.674 69.904C224.735 70.0267 224.781 70.134 224.812 70.226C225.118 71.0233 225.578 71.6367 226.192 72.066C226.805 72.4953 227.526 72.71 228.354 72.71C229.212 72.71 229.964 72.48 230.608 72.02C231.252 71.56 231.727 70.916 232.034 70.088C232.34 69.4747 232.494 68.6773 232.494 67.696C232.494 66.8067 232.356 66.0093 232.08 65.304C231.865 64.5067 231.436 63.8933 230.792 63.464C230.148 63.0347 229.396 62.82 228.538 62.82C227.679 62.82 226.882 63.0193 226.146 63.418C225.41 63.8167 224.919 64.338 224.674 64.982C224.582 65.2887 224.382 65.442 224.076 65.442H218.418C218.264 65.442 218.126 65.396 218.004 65.304C217.912 65.1813 217.866 65.0433 217.866 64.89V46.352C217.866 46.1987 217.912 46.076 218.004 45.984C218.126 45.8613 218.264 45.8 218.418 45.8H237.416C237.569 45.8 237.692 45.8613 237.784 45.984C237.906 46.076 237.968 46.1987 237.968 46.352V50.814C237.968 50.9673 237.906 51.1053 237.784 51.228C237.692 51.32 237.569 51.366 237.416 51.366H224.582C224.428 51.366 224.352 51.4427 224.352 51.596L224.306 58.404C224.306 58.6187 224.398 58.6647 224.582 58.542C225.962 57.6527 227.556 57.208 229.366 57.208C231.512 57.208 233.383 57.76 234.978 58.864C236.603 59.9373 237.753 61.4247 238.428 63.326ZM246.343 78C245.883 78 245.729 77.7853 245.883 77.356L255.865 51.642C255.926 51.458 255.865 51.366 255.681 51.366H247.079C246.925 51.366 246.849 51.4427 246.849 51.596V53.712C246.849 53.8653 246.787 54.0033 246.665 54.126C246.573 54.218 246.45 54.264 246.297 54.264H242.111C241.957 54.264 241.819 54.218 241.697 54.126C241.605 54.0033 241.559 53.8653 241.559 53.712L241.605 46.352C241.605 46.1987 241.651 46.076 241.743 45.984C241.865 45.8613 242.003 45.8 242.157 45.8H262.259C262.412 45.8 262.535 45.8613 262.627 45.984C262.749 46.076 262.811 46.1987 262.811 46.352V50.998C262.811 51.182 262.765 51.412 262.673 51.688L252.737 77.586C252.645 77.862 252.43 78 252.093 78H246.343Z" fill="#464255"/>
<path d="M182.133 128.916C182.213 128.916 182.253 128.956 182.253 129.036V129.564C182.253 129.644 182.213 129.684 182.133 129.684H181.617C181.585 129.684 181.569 129.7 181.569 129.732V131.88C181.569 131.96 181.529 132 181.449 132H180.837C180.757 132 180.717 131.96 180.717 131.88V129.732C180.717 129.7 180.701 129.684 180.669 129.684H177.081C177.001 129.684 176.961 129.644 176.961 129.564V129.12C176.961 129.08 176.973 129.032 176.997 128.976L179.457 123.684C179.481 123.628 179.525 123.6 179.589 123.6H180.225C180.265 123.6 180.293 123.616 180.309 123.648C180.333 123.672 180.337 123.704 180.321 123.744L177.933 128.856C177.925 128.872 177.925 128.888 177.933 128.904C177.941 128.912 177.953 128.916 177.969 128.916H180.669C180.701 128.916 180.717 128.9 180.717 128.868V126.936C180.717 126.856 180.757 126.816 180.837 126.816H181.449C181.529 126.816 181.569 126.856 181.569 126.936V128.868C181.569 128.9 181.585 128.916 181.617 128.916H182.133ZM185.838 126.9C185.526 126.9 185.238 126.824 184.974 126.672C184.71 126.52 184.498 126.316 184.338 126.06C184.186 125.796 184.11 125.508 184.11 125.196C184.11 124.884 184.186 124.6 184.338 124.344C184.498 124.08 184.71 123.872 184.974 123.72C185.238 123.568 185.526 123.492 185.838 123.492C186.15 123.492 186.438 123.568 186.702 123.72C186.966 123.872 187.174 124.08 187.326 124.344C187.478 124.6 187.554 124.884 187.554 125.196C187.554 125.508 187.478 125.796 187.326 126.06C187.174 126.316 186.966 126.52 186.702 126.672C186.438 126.824 186.15 126.9 185.838 126.9ZM185.562 132C185.514 132 185.482 131.988 185.466 131.964C185.45 131.932 185.454 131.896 185.478 131.856L190.026 123.684C190.066 123.628 190.114 123.6 190.17 123.6H190.554C190.602 123.6 190.634 123.616 190.65 123.648C190.666 123.672 190.662 123.704 190.638 123.744L186.102 131.916C186.078 131.972 186.03 132 185.958 132H185.562ZM185.838 126.348C186.158 126.348 186.426 126.236 186.642 126.012C186.866 125.788 186.978 125.516 186.978 125.196C186.978 124.876 186.866 124.604 186.642 124.38C186.426 124.156 186.158 124.044 185.838 124.044C185.518 124.044 185.246 124.156 185.022 124.38C184.798 124.596 184.686 124.868 184.686 125.196C184.686 125.516 184.798 125.788 185.022 126.012C185.246 126.236 185.518 126.348 185.838 126.348ZM190.35 132.108C190.038 132.108 189.75 132.032 189.486 131.88C189.222 131.728 189.01 131.52 188.85 131.256C188.698 130.992 188.622 130.704 188.622 130.392C188.622 130.088 188.698 129.808 188.85 129.552C189.01 129.288 189.222 129.08 189.486 128.928C189.75 128.776 190.038 128.7 190.35 128.7C190.654 128.7 190.938 128.776 191.202 128.928C191.466 129.08 191.674 129.288 191.826 129.552C191.978 129.808 192.054 130.088 192.054 130.392C192.054 130.704 191.978 130.992 191.826 131.256C191.674 131.52 191.466 131.728 191.202 131.88C190.946 132.032 190.662 132.108 190.35 132.108ZM190.35 131.556C190.67 131.556 190.938 131.444 191.154 131.22C191.378 130.996 191.49 130.72 191.49 130.392C191.49 130.072 191.378 129.804 191.154 129.588C190.93 129.364 190.662 129.252 190.35 129.252C190.022 129.252 189.746 129.364 189.522 129.588C189.298 129.804 189.186 130.072 189.186 130.392C189.186 130.72 189.298 130.996 189.522 131.22C189.746 131.444 190.022 131.556 190.35 131.556ZM196.949 133.248C196.893 133.248 196.845 133.224 196.805 133.176C196.413 132.576 196.097 131.828 195.857 130.932C195.617 130.036 195.497 129.092 195.497 128.1C195.497 127.092 195.617 126.128 195.857 125.208C196.105 124.288 196.429 123.524 196.829 122.916C196.861 122.868 196.909 122.844 196.973 122.844H197.549C197.597 122.844 197.629 122.86 197.645 122.892C197.661 122.916 197.657 122.948 197.633 122.988C197.289 123.604 197.009 124.364 196.793 125.268C196.577 126.164 196.469 127.104 196.469 128.088C196.469 129.056 196.577 129.984 196.793 130.872C197.009 131.752 197.289 132.496 197.633 133.104C197.649 133.136 197.657 133.16 197.657 133.176C197.657 133.224 197.621 133.248 197.549 133.248H196.949ZM203.845 128.028C204.005 128.42 204.085 128.888 204.085 129.432C204.085 129.872 204.025 130.26 203.905 130.596C203.745 131.076 203.473 131.448 203.089 131.712C202.713 131.968 202.245 132.096 201.685 132.096C201.125 132.096 200.645 131.952 200.245 131.664C199.845 131.368 199.569 130.972 199.417 130.476C199.345 130.252 199.301 129.948 199.285 129.564C199.285 129.484 199.325 129.444 199.405 129.444H200.017C200.097 129.444 200.137 129.484 200.137 129.564C200.153 129.796 200.181 130.012 200.221 130.212C200.309 130.564 200.477 130.844 200.725 131.052C200.981 131.252 201.297 131.352 201.673 131.352C202.393 131.352 202.861 131.032 203.077 130.392C203.173 130.128 203.221 129.8 203.221 129.408C203.221 128.928 203.157 128.536 203.029 128.232C202.773 127.656 202.321 127.368 201.673 127.368C201.553 127.368 201.405 127.412 201.229 127.5C201.197 127.516 201.173 127.524 201.157 127.524C201.125 127.524 201.097 127.504 201.073 127.464L200.761 127.044C200.721 126.98 200.725 126.924 200.773 126.876L202.885 124.404C202.909 124.364 202.901 124.344 202.861 124.344H199.477C199.397 124.344 199.357 124.304 199.357 124.224V123.72C199.357 123.64 199.397 123.6 199.477 123.6H203.917C203.997 123.6 204.037 123.64 204.037 123.72V124.308C204.037 124.348 204.017 124.396 203.977 124.452L202.057 126.756C202.041 126.772 202.037 126.788 202.045 126.804C202.053 126.812 202.069 126.816 202.093 126.816C202.949 126.872 203.533 127.276 203.845 128.028ZM208.233 132.12C207.465 132.12 206.853 131.9 206.397 131.46C205.941 131.02 205.713 130.432 205.713 129.696V125.904C205.713 125.168 205.941 124.584 206.397 124.152C206.853 123.712 207.465 123.492 208.233 123.492C209.009 123.492 209.629 123.712 210.093 124.152C210.557 124.592 210.789 125.176 210.789 125.904V129.696C210.789 130.432 210.557 131.02 210.093 131.46C209.629 131.9 209.009 132.12 208.233 132.12ZM208.233 131.376C208.745 131.376 209.157 131.228 209.469 130.932C209.781 130.636 209.937 130.24 209.937 129.744V125.868C209.937 125.38 209.781 124.988 209.469 124.692C209.165 124.396 208.753 124.248 208.233 124.248C207.729 124.248 207.325 124.396 207.021 124.692C206.717 124.988 206.565 125.38 206.565 125.868V129.744C206.565 130.24 206.717 130.636 207.021 130.932C207.325 131.228 207.729 131.376 208.233 131.376ZM218.777 123.72C218.777 123.64 218.817 123.6 218.897 123.6H219.509C219.589 123.6 219.629 123.64 219.629 123.72V131.88C219.629 131.96 219.589 132 219.509 132H218.897C218.817 132 218.777 131.96 218.777 131.88V131.376C218.777 131.36 218.769 131.352 218.753 131.352C218.745 131.344 218.733 131.348 218.717 131.364C218.541 131.596 218.321 131.776 218.057 131.904C217.801 132.032 217.513 132.096 217.193 132.096C216.633 132.096 216.161 131.952 215.777 131.664C215.401 131.376 215.141 130.984 214.997 130.488C214.885 130.128 214.829 129.62 214.829 128.964C214.829 128.3 214.877 127.804 214.973 127.476C215.117 126.964 215.381 126.564 215.765 126.276C216.149 125.98 216.625 125.832 217.193 125.832C217.505 125.832 217.793 125.896 218.057 126.024C218.321 126.144 218.541 126.32 218.717 126.552C218.733 126.568 218.745 126.576 218.753 126.576C218.769 126.568 218.777 126.556 218.777 126.54V123.72ZM218.561 130.428C218.633 130.268 218.685 130.08 218.717 129.864C218.749 129.648 218.765 129.348 218.765 128.964C218.765 128.58 218.749 128.28 218.717 128.064C218.685 127.84 218.629 127.644 218.549 127.476C218.453 127.204 218.293 126.988 218.069 126.828C217.853 126.66 217.593 126.576 217.289 126.576C216.969 126.576 216.693 126.656 216.461 126.816C216.229 126.976 216.061 127.188 215.957 127.452C215.861 127.628 215.789 127.828 215.741 128.052C215.701 128.268 215.681 128.572 215.681 128.964C215.681 129.34 215.697 129.636 215.729 129.852C215.761 130.06 215.817 130.248 215.897 130.416C215.993 130.704 216.161 130.932 216.401 131.1C216.649 131.268 216.941 131.352 217.277 131.352C217.597 131.352 217.865 131.268 218.081 131.1C218.297 130.932 218.457 130.708 218.561 130.428ZM223.659 125.832C224.379 125.832 224.935 126.016 225.327 126.384C225.719 126.752 225.915 127.24 225.915 127.848V131.88C225.915 131.96 225.875 132 225.795 132H225.183C225.103 132 225.063 131.96 225.063 131.88V131.388C225.063 131.372 225.055 131.36 225.039 131.352C225.031 131.344 225.019 131.348 225.003 131.364C224.803 131.604 224.543 131.788 224.223 131.916C223.903 132.036 223.547 132.096 223.155 132.096C222.587 132.096 222.111 131.952 221.727 131.664C221.343 131.376 221.151 130.936 221.151 130.344C221.151 129.744 221.367 129.272 221.799 128.928C222.239 128.576 222.847 128.4 223.623 128.4H225.015C225.047 128.4 225.063 128.384 225.063 128.352V127.896C225.063 127.488 224.947 127.168 224.715 126.936C224.491 126.696 224.139 126.576 223.659 126.576C223.275 126.576 222.963 126.652 222.723 126.804C222.483 126.948 222.335 127.152 222.279 127.416C222.255 127.496 222.207 127.532 222.135 127.524L221.487 127.44C221.399 127.424 221.363 127.392 221.379 127.344C221.443 126.896 221.683 126.532 222.099 126.252C222.515 125.972 223.035 125.832 223.659 125.832ZM223.323 131.364C223.795 131.364 224.203 131.248 224.547 131.016C224.891 130.776 225.063 130.456 225.063 130.056V129.12C225.063 129.088 225.047 129.072 225.015 129.072H223.755C223.227 129.072 222.803 129.18 222.483 129.396C222.163 129.612 222.003 129.912 222.003 130.296C222.003 130.648 222.123 130.916 222.363 131.1C222.611 131.276 222.931 131.364 223.323 131.364ZM227.342 134.4C227.286 134.4 227.258 134.36 227.258 134.28V133.8C227.258 133.72 227.298 133.68 227.378 133.68H227.426C227.738 133.672 227.978 133.624 228.146 133.536C228.322 133.456 228.47 133.3 228.59 133.068C228.718 132.844 228.854 132.5 228.998 132.036C229.014 132.004 229.014 131.98 228.998 131.964L226.97 126.06L226.958 126.012C226.958 125.956 226.994 125.928 227.066 125.928H227.702C227.774 125.928 227.822 125.96 227.846 126.024L229.406 130.872C229.414 130.888 229.426 130.896 229.442 130.896C229.458 130.896 229.47 130.888 229.478 130.872L231.014 126.024C231.038 125.96 231.086 125.928 231.158 125.928H231.782C231.87 125.928 231.902 125.972 231.878 126.06L229.658 132.528C229.466 133.064 229.286 133.46 229.118 133.716C228.95 133.972 228.738 134.148 228.482 134.244C228.234 134.348 227.882 134.4 227.426 134.4H227.342ZM234.766 132.06C234.318 132.06 233.918 131.988 233.566 131.844C233.222 131.7 232.954 131.508 232.762 131.268C232.578 131.028 232.486 130.76 232.486 130.464V130.32C232.486 130.24 232.526 130.2 232.606 130.2H233.182C233.262 130.2 233.302 130.24 233.302 130.32V130.416C233.302 130.68 233.438 130.912 233.71 131.112C233.99 131.304 234.338 131.4 234.754 131.4C235.17 131.4 235.506 131.308 235.762 131.124C236.018 130.932 236.146 130.692 236.146 130.404C236.146 130.204 236.078 130.04 235.942 129.912C235.814 129.784 235.658 129.684 235.474 129.612C235.298 129.54 235.022 129.448 234.646 129.336C234.198 129.208 233.83 129.08 233.542 128.952C233.254 128.824 233.01 128.648 232.81 128.424C232.618 128.192 232.522 127.9 232.522 127.548C232.522 127.036 232.722 126.628 233.122 126.324C233.522 126.02 234.05 125.868 234.706 125.868C235.146 125.868 235.534 125.94 235.87 126.084C236.214 126.228 236.478 126.428 236.662 126.684C236.846 126.932 236.938 127.212 236.938 127.524V127.56C236.938 127.64 236.898 127.68 236.818 127.68H236.254C236.174 127.68 236.134 127.64 236.134 127.56V127.524C236.134 127.252 236.002 127.024 235.738 126.84C235.482 126.656 235.134 126.564 234.694 126.564C234.286 126.564 233.958 126.648 233.71 126.816C233.462 126.976 233.338 127.2 233.338 127.488C233.338 127.76 233.458 127.968 233.698 128.112C233.938 128.256 234.31 128.4 234.814 128.544C235.278 128.68 235.654 128.808 235.942 128.928C236.23 129.048 236.478 129.224 236.686 129.456C236.894 129.68 236.998 129.976 236.998 130.344C236.998 130.864 236.794 131.28 236.386 131.592C235.978 131.904 235.438 132.06 234.766 132.06ZM239.332 122.844C239.388 122.844 239.436 122.868 239.476 122.916C239.86 123.516 240.172 124.264 240.412 125.16C240.652 126.056 240.772 127 240.772 127.992C240.772 129.008 240.648 129.976 240.4 130.896C240.16 131.816 239.84 132.576 239.44 133.176C239.408 133.224 239.36 133.248 239.296 133.248H238.732C238.684 133.248 238.652 133.232 238.636 133.2C238.62 133.176 238.624 133.144 238.648 133.104C238.992 132.488 239.272 131.732 239.488 130.836C239.704 129.932 239.812 128.992 239.812 128.016C239.812 127.048 239.704 126.12 239.488 125.232C239.272 124.344 238.992 123.596 238.648 122.988C238.632 122.956 238.624 122.932 238.624 122.916C238.624 122.868 238.66 122.844 238.732 122.844H239.332Z" fill="#A3A3A3"/>
<rect x="207.373" y="135" width="16" height="16.1308" rx="8" transform="rotate(-180 207.373 135)" fill="#2ED6A3" fill-opacity="0.15"/>
<g clip-path="url(#clip0_1_532)">
<path d="M197.393 126.796C197.481 126.885 197.601 126.935 197.726 126.935C197.851 126.935 197.97 126.885 198.058 126.796L198.902 125.945L198.902 129.07C198.902 129.195 198.952 129.316 199.04 129.405C199.128 129.494 199.248 129.544 199.373 129.544C199.498 129.544 199.617 129.494 199.706 129.405C199.794 129.316 199.843 129.195 199.843 129.07L199.843 125.945L200.687 126.796C200.776 126.882 200.895 126.93 201.018 126.929C201.142 126.928 201.26 126.878 201.347 126.79C201.434 126.702 201.484 126.583 201.485 126.458C201.486 126.334 201.438 126.214 201.353 126.125L199.706 124.464C199.617 124.375 199.498 124.325 199.373 124.325C199.248 124.325 199.128 124.375 199.04 124.464L197.393 126.125C197.305 126.214 197.255 126.334 197.255 126.46C197.255 126.586 197.305 126.707 197.393 126.796Z" fill="#00A389"/>
</g>
<ellipse cx="96.1554" cy="79.5" rx="42.1554" ry="42.5" fill="#B00000" fill-opacity="0.15"/>
<path d="M86.7946 51.8539L64.3887 61.3178L86.7946 70.7817L109.2 61.3178L86.7946 51.8539Z" fill="#B00000"/>
<path d="M77.7003 55.7151L73.4832 57.4564L95.8891 66.9582L100.07 65.179L77.7003 55.7151Z" fill="#F7C604"/>
<path d="M64.3887 61.3179V87.4003L86.7946 96.8641V70.7817L64.3887 61.3179Z" fill="#520A0A"/>
<path d="M109.2 61.3179V87.4003L86.7946 96.8641V70.7817L109.2 61.3179Z" fill="#D60000"/>
<path opacity="0.1" d="M109.2 74.643C108.54 74.4915 107.88 74.4158 107.184 74.4158C101.756 74.4158 97.3557 78.9585 97.3557 84.5611C97.3557 87.1731 98.3092 89.558 99.886 91.3372L109.2 87.4003V74.643V74.643Z" fill="#0C1E5B"/>
<path d="M95.8889 66.9582V77.8985L100.069 76.1192V65.179L95.8889 66.9582Z" fill="#F7C604"/>
<path d="M111.181 93.9492C116.608 93.9492 121.008 89.407 121.008 83.804C121.008 78.2009 116.608 73.6587 111.181 73.6587C105.753 73.6587 101.353 78.2009 101.353 83.804C101.353 89.407 105.753 93.9492 111.181 93.9492Z" fill="#FF5B5B"/>
<path d="M110.154 87.7409C109.861 87.7409 109.604 87.6273 109.384 87.4002L106.267 84.1825C105.827 83.7282 105.827 83.009 106.267 82.5926C106.707 82.1383 107.404 82.1383 107.807 82.5926L110.154 85.0153L114.555 80.4727C114.995 80.0184 115.691 80.0184 116.095 80.4727C116.535 80.9269 116.535 81.6462 116.095 82.0626L110.924 87.4002C110.704 87.6273 110.447 87.7409 110.154 87.7409Z" fill="white"/>
<path d="M71.6495 83.8797L69.2292 78.7314L66.9556 81.7977L68.2024 82.3655V85.6968L70.2193 86.6432V83.274L71.6495 83.8797Z" fill="#F2F5F3"/>
<defs>
<filter id="filter0_d_1_532" x="0" y="0" width="345.243" height="180" filterUnits="userSpaceOnUse" color-interpolation-filters="sRGB">
<feFlood flood-opacity="0" result="BackgroundImageFix"/>
<feColorMatrix in="SourceAlpha" type="matrix" values="0 0 0 0 0 0 0 0 0 0 0 0 0 0 0 0 0 0 127 0" result="hardAlpha"/>
<feOffset dy="4"/>
<feGaussianBlur stdDeviation="2"/>
<feColorMatrix type="matrix" values="0 0 0 0 0 0 0 0 0 0 0 0 0 0 0 0 0 0 0.04 0"/>
<feBlend mode="normal" in2="BackgroundImageFix" result="effect1_dropShadow_1_532"/>
<feBlend mode="normal" in="SourceGraphic" in2="effect1_dropShadow_1_532" result="shape"/>
</filter>
<clipPath id="clip0_1_532">
<rect width="5.64706" height="5.69322" fill="white" transform="translate(202.196 129.781) rotate(-180)"/>
</clipPath>
</defs>
</svg>
